PathFileType	4	(X/Y/Z)	./resultDataOpenSim/trcMotMarkerGrf/sub09/qtm-01-08.trc
DataRate	CameraRate	NumFrames	NumMarkers	Units	OrigDataRate	OrigDataStartFrame	OrigNumFrames
250.000000	250.000000	13	24	m	250.000000	294	470
Frame#	Time	L.Toe.Tip			R.Toe.Tip			L.Ankle.Lat			R.Ankle.Lat			L.Ankle.Med			R.Ankle.Med			L.Heel			R.Heel			L.Knee.Lat			R.Knee.Lat			L.Knee.Med			R.Knee.Med			L.Thigh.Upper			R.Thigh.Upper			L.ASIS			R.ASIS			V.Sacral			L.Acromium			R.Acromium			C7			L.Elbow			R.Elbow			L.Wrist.Lat			R.Wrist.Lat
		X1	Y1	Z1	X2	Y2	Z2	X3	Y3	Z3	X4	Y4	Z4	X5	Y5	Z5	X6	Y6	Z6	X7	Y7	Z7	X8	Y8	Z8	X9	Y9	Z9	X10	Y10	Z10	X11	Y11	Z11	X12	Y12	Z12	X13	Y13	Z13	X14	Y14	Z14	X15	Y15	Z15	X16	Y16	Z16	X17	Y17	Z17	X18	Y18	Z18	X19	Y19	Z19	X20	Y20	Z20	X21	Y21	Z21	X22	Y22	Z22	X23	Y23	Z23	X24	Y24	Z24

294	1.172	0.11344942	0.039941652	0.022340054	0.92088191	0.06220882	0.13005639	0.0059575633	0.13668654	-0.033207994	0.77119347	0.055018839	0.16653458	0.029802309	0.1454228	0.062565874	0.77595902	0.096105192	0.075855858	-0.075042165	0.14458651	0.0072737729	0.70940341	0.026529417	0.11585854	0.29254779	0.447251	-0.069558466	0.67789523	0.50361814	0.21657888	0.29042303	0.44640199	0.055335043	0.67241332	0.48507919	0.091027704	0.41419616	0.84404654	-0.1005855	0.4664734	0.84342178	0.26685664	0.5194131	0.92211622	-0.057880867	0.53878336	0.93395641	0.18675691	0.36450279	0.97810412	0.079457304	0.51560972	1.3848425	-0.085343387	0.47638302	1.387744	0.24368655	0.42801743	1.4337502	0.073319631	0.40905865	1.0249469	-0.15961125	0.33378088	1.0521989	0.31509396	0.63316068	0.87215763	-0.13911566	0.44836863	0.81121383	0.35917597
295	1.176	0.11408099	0.040168874	0.022116189	0.92403555	0.057034749	0.12949814	0.0094523454	0.13998855	-0.034051518	0.77525569	0.054120619	0.16722886	0.03365925	0.14810096	0.061614595	0.77905471	0.095132285	0.076453598	-0.071087604	0.14988476	0.006640544	0.71139393	0.027871101	0.11713721	0.30113296	0.44617618	-0.069593515	0.68564956	0.50434433	0.21654909	0.29926502	0.44470645	0.055213618	0.67824099	0.48444675	0.091316235	0.42196182	0.84283755	-0.10008003	0.47478378	0.84362184	0.26759113	0.52640692	0.92111464	-0.057052053	0.54608102	0.93406981	0.18724561	0.3719173	0.97770942	0.080055578	0.52215875	1.3843599	-0.084846409	0.48315143	1.3871885	0.24434107	0.43468663	1.4333109	0.074175501	0.41530454	1.024536	-0.15904066	0.34047888	1.0514571	0.3152616	0.63883511	0.87102196	-0.13879141	0.45548386	0.81051903	0.35989146
296	1.18	0.11469559	0.040423221	0.02191431	0.92664053	0.05188525	0.12898864	0.01311527	0.1434615	-0.034961384	0.77874209	0.053301028	0.16767302	0.037823761	0.15090261	0.060644304	0.7817634	0.094425527	0.076832646	-0.066772833	0.15541437	0.0060697155	0.71296523	0.029064026	0.11835583	0.31003626	0.44507903	-0.069720171	0.69379006	0.50553584	0.21644379	0.3085643	0.44291031	0.054993724	0.68424095	0.48434087	0.091690112	0.42983784	0.84168267	-0.099764391	0.48290479	0.84404745	0.26833383	0.5333684	0.92015893	-0.056190221	0.55332707	0.93431887	0.18777177	0.37929674	0.97730929	0.080604853	0.52870066	1.3839804	-0.084355846	0.48994387	1.3866959	0.24497603	0.44139091	1.4329065	0.074902724	0.42154853	1.0242296	-0.15844118	0.34720893	1.0508122	0.31541344	0.64442853	0.86987898	-0.13850218	0.46262862	0.80988943	0.36057968
297	1.184	0.11526583	0.040698759	0.021717763	0.92882356	0.047359494	0.12809796	0.017002542	0.14710814	-0.035919555	0.78159316	0.052621874	0.16765842	0.0423222	0.1538146	0.059644903	0.7840129	0.093895534	0.076724129	-0.062043317	0.16115169	0.005533014	0.71406947	0.030042351	0.11928026	0.31923206	0.4439379	-0.069934881	0.70224287	0.50692405	0.2162867	0.31770779	0.44113676	0.054870673	0.69036618	0.48465027	0.092101463	0.43778086	0.84053748	-0.099423162	0.49079581	0.84464376	0.26909738	0.54036132	0.91925249	-0.055263076	0.56052441	0.93468529	0.18832466	0.38657037	0.97691746	0.081072147	0.53523781	1.3836987	-0.083869013	0.49675839	1.3862617	0.24558085	0.44814189	1.4325034	0.075430518	0.42779065	1.0240354	-0.15781091	0.35407923	1.0502623	0.31562739	0.6499372	0.86873516	-0.13823844	0.46980742	0.80932415	0.36124492
298	1.188	0.11581361	0.041023052	0.021515237	0.93055687	0.044082362	0.12666293	0.021191963	0.15092017	-0.036866563	0.78372979	0.052145512	0.16711947	0.047198408	0.15682076	0.058615105	0.7855953	0.093376378	0.076028599	-0.056875447	0.16706392	0.0050769289	0.71477478	0.030703098	0.11967891	0.32867785	0.44276142	-0.070227598	0.7108573	0.50820479	0.21609065	0.32665041	0.43949141	0.05480906	0.69656148	0.48521522	0.092444092	0.44573786	0.83939213	-0.098901564	0.49844774	0.84535988	0.26989403	0.54743452	0.91839872	-0.054256912	0.56765976	0.93514608	0.18889838	0.39359706	0.97658722	0.081413778	0.54177643	1.383508	-0.083381629	0.50359623	1.3858916	0.24615204	0.45491262	1.4321001	0.075802258	0.43403184	1.023965	-0.15715347	0.3611123	1.0497915	0.31592806	0.6553607	0.867601	-0.13799023	0.47703042	0.8088318	0.3618916
299	1.192	0.11643171	0.04145614	0.021306992	0.93174393	0.042232034	0.12497639	0.025756249	0.15489552	-0.037745442	0.78506262	0.051949567	0.1662138	0.052514698	0.15989677	0.05756133	0.78643373	0.092764864	0.074924439	-0.051276886	0.17311146	0.0047645339	0.71523078	0.031013473	0.11948962	0.33835732	0.44157877	-0.070602086	0.71944312	0.50918403	0.21582354	0.33605884	0.43794176	0.054530032	0.70277206	0.4859037	0.092632173	0.45369494	0.83826984	-0.098230789	0.50587521	0.84615806	0.27073493	0.55463911	0.91760068	-0.053161994	0.57470659	0.93568587	0.1894975	0.40027416	0.97638522	0.081577641	0.54832223	1.3834028	-0.082894429	0.5104564	1.3855969	0.24669552	0.46165739	1.4317223	0.076141758	0.44026351	1.0240294	-0.15647886	0.36829261	1.0493837	0.31628985	0.66070272	0.86648624	-0.13775107	0.48430276	0.80842363	0.36251878
300	1.196	0.11726398	0.042070837	0.021101061	0.93241992	0.041439734	0.12350362	0.030743374	0.15902867	-0.03852142	0.78564336	0.052061416	0.1652441	0.058320979	0.16300994	0.05649525	0.7866908	0.092074631	0.073765118	-0.045261661	0.17925397	0.0045971464	0.71557171	0.031048833	0.11896613	0.348294	0.44041298	-0.071070095	0.72786185	0.5098487	0.21545634	0.34640188	0.43632321	0.053896589	0.70899568	0.48666402	0.092622477	0.46167239	0.83718762	-0.097530451	0.51309853	0.84700196	0.27162431	0.56203811	0.91686087	-0.051964029	0.58163559	0.93630209	0.19014202	0.40671718	0.97632803	0.081581657	0.55487921	1.3833746	-0.082414543	0.51733498	1.3853793	0.24722109	0.46833331	1.4313978	0.076579308	0.44647507	1.0242221	-0.15579351	0.37562302	1.0490335	0.31668183	0.66597258	0.86539272	-0.13751786	0.49162734	0.80809859	0.36312595
301	1.2	0.11842773	0.042919737	0.020895939	0.93280907	0.041115489	0.12246816	0.036167848	0.16330025	-0.039182895	0.78572076	0.052394579	0.16449856	0.064607868	0.1661478	0.055436468	0.78665335	0.091392152	0.07286632	-0.038836963	0.18546758	0.0045164207	0.7158429	0.030967544	0.11854211	0.35850413	0.43926646	-0.071621169	0.73606338	0.51030558	0.21501604	0.35743365	0.43447995	0.053083451	0.71530189	0.4875286	0.092406051	0.4696745	0.83614224	-0.096842603	0.52013342	0.84785826	0.27255412	0.5697027	0.91618165	-0.050644529	0.58843156	0.93699771	0.19085992	0.41322176	0.97635776	0.081583909	0.56145288	1.3834106	-0.081947115	0.52422928	1.3852287	0.24773669	0.47493079	1.4311451	0.077182493	0.45266739	1.0245164	-0.15510083	0.38308815	1.0487423	0.31708059	0.67117924	0.86431333	-0.1372912	0.49900572	0.80783928	0.3637155
302	1.204	0.1199486	0.04401478	0.020670241	0.93313166	0.040852618	0.1218036	0.042003654	0.16768552	-0.039749817	0.78560902	0.052775779	0.16412715	0.071290178	0.16934446	0.054415767	0.78654091	0.090822721	0.072365975	-0.032007375	0.19175888	0.0044578833	0.71603487	0.030910627	0.11849338	0.36893177	0.43814053	-0.072192973	0.74402276	0.51067615	0.214579	0.36866301	0.43238285	0.052330489	0.72176999	0.48857309	0.092019318	0.47767303	0.83513324	-0.096104058	0.52699913	0.84871543	0.27351288	0.57768384	0.91556757	-0.049192562	0.59510473	0.93777164	0.19167041	0.41997881	0.9764091	0.081766988	0.56804829	1.3835033	-0.081492538	0.53113275	1.3851385	0.24824567	0.4814976	1.4309823	0.077902453	0.45884817	1.0248882	-0.15440449	0.39063796	1.0485077	0.3174694	0.67632141	0.86324165	-0.13707556	0.50642807	0.80762704	0.36428561
303	1.208	0.12178521	0.045340454	0.020396891	0.93344645	0.040554156	0.12140618	0.048196371	0.17216814	-0.040263035	0.78552894	0.053040431	0.1640962	0.07824395	0.17265508	0.053467056	0.78643286	0.090466315	0.072222401	-0.024781207	0.19815258	0.0043769473	0.71615522	0.030916974	0.11877304	0.37947019	0.43705722	-0.072682435	0.75165784	0.51104108	0.21419637	0.37989003	0.43010697	0.051741411	0.72841382	0.48984335	0.091540818	0.48563492	0.83418321	-0.095230717	0.53372705	0.84958549	0.27449866	0.58595608	0.91503023	-0.04762728	0.60168469	0.93861472	0.19257098	0.42693995	0.97646793	0.082155772	0.57466283	1.3836588	-0.081053054	0.53803389	1.3851158	0.24874567	0.48809894	1.430934	0.078614482	0.465017	1.0253348	-0.15370884	0.39822148	1.0483259	0.31786038	0.68138754	0.86218159	-0.13687806	0.51387942	0.8074617	0.36483007
304	1.212	0.12389468	0.046874454	0.020059575	0.93371578	0.040275474	0.12125236	0.05470122	0.17674002	-0.040755396	0.7855744	0.053101838	0.16424322	0.085371841	0.17609789	0.052608669	0.78635561	0.090384584	0.072294669	-0.017171472	0.20465674	0.0042413672	0.71623912	0.030960121	0.11915733	0.39006925	0.43603796	-0.073018401	0.75885052	0.5114238	0.21384278	0.39121283	0.42774047	0.051331213	0.73516434	0.49128888	0.091048519	0.49353672	0.83331716	-0.094189163	0.54034047	0.85047726	0.27550654	0.59437637	0.91459143	-0.046013526	0.60820508	0.939506	0.1935384	0.4339501	0.97655062	0.08264404	0.5812886	1.3838871	-0.080631117	0.54493034	1.3851727	0.24923188	0.49475337	1.4310189	0.079237061	0.47116487	1.0258633	-0.15301907	0.40581784	1.0481968	0.31832118	0.68636559	0.86114161	-0.13670634	0.52136555	0.80736368	0.36534959
305	1.216	0.12626161	0.048589779	0.019648334	0.93392244	0.040056472	0.12127435	0.061504336	0.18138375	-0.041245251	0.78578985	0.052957412	0.16438616	0.092653461	0.17963355	0.051831698	0.78638029	0.090556418	0.072427182	-0.0091889384	0.21123975	0.0040281666	0.71631768	0.031020612	0.11946456	0.40077311	0.4350676	-0.073202458	0.76554136	0.51179631	0.21348679	0.40278445	0.4253354	0.0510957	0.74188997	0.49275762	0.090591753	0.50135242	0.83252371	-0.093045553	0.54683245	0.8513788	0.2765064	0.6027285	0.91427745	-0.044442728	0.61469466	0.94041065	0.19454021	0.44088494	0.97667186	0.083147071	0.58792235	1.3841851	-0.080223251	0.55183016	1.3853124	0.24970112	0.50143579	1.4312339	0.079772646	0.47728644	1.0264706	-0.15233968	0.41345892	1.0481237	0.31895517	0.69125333	0.86012309	-0.13656283	0.52891575	0.80735419	0.36585431
306	1.22	0.12889563	0.050457248	0.019151206	0.93408598	0.039891015	0.1212851	0.06861661	0.1860595	-0.04173329	0.78617843	0.052695707	0.16442357	0.10014072	0.18320005	0.051110679	0.78659366	0.090873697	0.0725051	-0.00083379144	0.2178437	0.0037323812	0.71640035	0.031092225	0.11963172	0.41162272	0.43409495	-0.073251117	0.77175124	0.51211063	0.2131765	0.41465328	0.42292042	0.051015341	0.74843119	0.49406837	0.090195833	0.50904733	0.83176592	-0.091939348	0.55319203	0.85227242	0.27745572	0.61083387	0.91410697	-0.042988104	0.62117533	0.9412919	0.19554358	0.44768044	0.97684519	0.083650541	0.59456525	1.3845382	-0.079825369	0.55873483	1.3855287	0.25015169	0.5081194	1.4315473	0.080251118	0.48338439	1.0271455	-0.15167749	0.42119947	1.0481103	0.31980651	0.69605668	0.85912116	-0.13644236	0.53655133	0.80743688	0.36634868
